{"accessors" : [{"bufferView" : 0, "byteOffset" : 0, "componentType" : 5123, "count" : 2904, "type" : "SCALAR", "max" : [2382], "min" : [0]}, {"bufferView" : 1, "byteOffset" : 0, "componentType" : 5126, "count" : 2383, "type" : "VEC3", "max" : [-1.1268750429153442, 2.2360610961914062, 4.9554548263549805], "min" : [-3.8612499237060547, 0.2673110067844391, 3.2523300647735596], "name" : "POSITION"}, {"bufferView" : 1, "byteOffset" : 12, "componentType" : 5126, "count" : 2383, "type" : "VEC3", "max" : [0.9982637763023376, 0.9996054172515869, 0.9999978542327881], "min" : [-0.9982638955116272, -0.9848813414573669, -0.9898332953453064], "name" : "NORMAL"}], "asset" : {"generator" : "Aspose.3D 24.1.0", "version" : "2.0"}, "buffers" : [{"uri" : "data:application/octet-stream;base64,", "byteLength" : 75512}], "bufferViews" : [{"buffer" : 0, "byteOffset" : 0, "byteLength" : 5808, "target" : 34963}, {"buffer" : 0, "byteOffset" : 5812, "byteLength" : 69696, "byteStride" : 24, "target" : 34962}], "meshes" : [{"primitives" : [{"attributes" : {"POSITION" : 1, "NORMAL" : 2}, "indices" : 0, "mode" : 4}], "name" : ""}], "nodes" : [{"mesh" : 0, "name" : ""}], "scene" : 0, "scenes" : [{"nodes" : [0]}]}